<svg xmlns="http://www.w3.org/2000/svg" width="717.807" height="52.514" viewBox="0 0 717.807 52.514">
  <g id="Group_47" data-name="Group 47" transform="translate(-1080 -455)">
    <g id="Group_46" data-name="Group 46" transform="translate(531 84)">
      <g id="Group_43" data-name="Group 43" transform="translate(549 376.073)">
        <path id="Path_79" data-name="Path 79" d="M472,610l16.6,22.471L472,654.942h66V610Z" transform="translate(-472 -610)" fill="#950303"/>
        <path id="Path_80" data-name="Path 80" d="M472,610l16.6,22.471L472,654.942h66V610Z" transform="translate(-472 -610)" fill="#950303" opacity="0.1"/>
      </g>
      <g id="Group_44" data-name="Group 44" transform="translate(1200.807 378.572)">
        <path id="Path_81" data-name="Path 81" d="M1027,613l-16.6,22.471,16.6,22.471H961V613Z" transform="translate(-961 -613)" fill="#950303"/>
        <path id="Path_82" data-name="Path 82" d="M1027,613l-16.6,22.471,16.6,22.471H961V613Z" transform="translate(-961 -613)" fill="#950303" opacity="0.1"/>
      </g>
      <rect id="Rectangle_28" data-name="Rectangle 28" width="652" height="46" transform="translate(588 371)" fill="#b70404"/>
      <path id="Path_120" data-name="Path 120" d="M11.484-14.7l-4.85,9.27V0H4.912V-5.394L.185-14.7H2.143L5.435-8.06q.062.123.359.9h.031a5.394,5.394,0,0,1,.39-.9L9.659-14.7ZM15.853.246a4.87,4.87,0,0,1-3.717-1.471,5.45,5.45,0,0,1-1.389-3.9,5.678,5.678,0,0,1,1.446-4.132A5.2,5.2,0,0,1,16.1-10.746,4.709,4.709,0,0,1,19.764-9.3a5.733,5.733,0,0,1,1.318,4.009,5.641,5.641,0,0,1-1.42,4.025A4.976,4.976,0,0,1,15.853.246Zm.123-9.577a3.2,3.2,0,0,0-2.563,1.1,4.527,4.527,0,0,0-.943,3.04,4.281,4.281,0,0,0,.954,2.943,3.241,3.241,0,0,0,2.553,1.077,3.074,3.074,0,0,0,2.507-1.056,4.583,4.583,0,0,0,.877-3,4.662,4.662,0,0,0-.877-3.035A3.061,3.061,0,0,0,15.976-9.331ZM32.259,0H30.577V-1.661h-.041A3.453,3.453,0,0,1,27.3.246q-3.753,0-3.753-4.471V-10.5h1.671v6.009q0,3.322,2.543,3.322a2.573,2.573,0,0,0,2.025-.907,3.472,3.472,0,0,0,.795-2.374V-10.5h1.682ZM50.121,0H48.439V-6.05q0-3.281-2.44-3.281a2.661,2.661,0,0,0-2.071.948,3.535,3.535,0,0,0-.841,2.435V0H41.405V-15.545h1.682v6.788h.041a3.819,3.819,0,0,1,3.445-1.989q3.548,0,3.548,4.276ZM60.806,0H59.124V-1.641h-.041A3.521,3.521,0,0,1,55.853.246,3.452,3.452,0,0,1,53.4-.584a2.878,2.878,0,0,1-.887-2.2q0-2.943,3.466-3.425l3.148-.441q0-2.676-2.164-2.676a5.169,5.169,0,0,0-3.425,1.292V-9.762a6.507,6.507,0,0,1,3.568-.984q3.7,0,3.7,3.917ZM59.124-5.312l-2.533.349a4.112,4.112,0,0,0-1.764.579,1.671,1.671,0,0,0-.595,1.471,1.6,1.6,0,0,0,.549,1.256,2.12,2.12,0,0,0,1.461.487,2.7,2.7,0,0,0,2.066-.877,3.132,3.132,0,0,0,.815-2.22Zm13.1-5.188L68.045,0H66.394L62.416-10.5h1.846l2.666,7.629A6.847,6.847,0,0,1,67.3-1.4h.041a6.934,6.934,0,0,1,.328-1.425l2.789-7.67ZM82.472-4.83H75.059A3.927,3.927,0,0,0,76-2.123a3.252,3.252,0,0,0,2.481.954,5.159,5.159,0,0,0,3.261-1.169V-.759a6.094,6.094,0,0,1-3.661,1,4.438,4.438,0,0,1-3.5-1.43,5.855,5.855,0,0,1-1.271-4.025A5.742,5.742,0,0,1,74.7-9.2a4.455,4.455,0,0,1,3.45-1.543,3.948,3.948,0,0,1,3.189,1.333,5.558,5.558,0,0,1,1.128,3.7ZM80.75-6.255a3.421,3.421,0,0,0-.7-2.266,2.393,2.393,0,0,0-1.923-.81,2.716,2.716,0,0,0-2.02.851,3.862,3.862,0,0,0-1.025,2.225ZM90.132-.379v-1.8a4.977,4.977,0,0,0,3.025,1.015q2.215,0,2.215-1.477a1.281,1.281,0,0,0-.19-.713,1.891,1.891,0,0,0-.513-.518,3.946,3.946,0,0,0-.759-.405q-.436-.179-.938-.374a12.084,12.084,0,0,1-1.225-.559,3.7,3.7,0,0,1-.882-.636,2.366,2.366,0,0,1-.533-.8,2.848,2.848,0,0,1-.179-1.056,2.509,2.509,0,0,1,.338-1.307,3,3,0,0,1,.9-.954,4.208,4.208,0,0,1,1.287-.579,5.708,5.708,0,0,1,1.492-.195,6.024,6.024,0,0,1,2.44.472v1.7a4.756,4.756,0,0,0-2.666-.759,3.116,3.116,0,0,0-.851.108,2.084,2.084,0,0,0-.651.3,1.4,1.4,0,0,0-.42.467,1.229,1.229,0,0,0-.149.6,1.439,1.439,0,0,0,.149.687,1.512,1.512,0,0,0,.436.492,3.331,3.331,0,0,0,.7.39q.41.174.933.379a12.987,12.987,0,0,1,1.251.549,4.291,4.291,0,0,1,.943.636,2.484,2.484,0,0,1,.6.815,2.629,2.629,0,0,1,.21,1.1,2.587,2.587,0,0,1-.344,1.354,2.944,2.944,0,0,1-.918.954A4.2,4.2,0,0,1,94.51.062a6.531,6.531,0,0,1-1.569.185A5.957,5.957,0,0,1,90.132-.379Zm17.985-4.45H100.7a3.927,3.927,0,0,0,.943,2.707,3.252,3.252,0,0,0,2.481.954,5.159,5.159,0,0,0,3.261-1.169V-.759a6.094,6.094,0,0,1-3.661,1,4.438,4.438,0,0,1-3.5-1.43A5.855,5.855,0,0,1,98.96-5.209,5.742,5.742,0,0,1,100.35-9.2a4.455,4.455,0,0,1,3.45-1.543,3.948,3.948,0,0,1,3.189,1.333,5.558,5.558,0,0,1,1.128,3.7Zm-1.723-1.425a3.421,3.421,0,0,0-.7-2.266,2.393,2.393,0,0,0-1.923-.81,2.716,2.716,0,0,0-2.02.851,3.862,3.862,0,0,0-1.025,2.225ZM112.342,0H110.66V-15.545h1.682Zm11.843-4.83h-7.414a3.927,3.927,0,0,0,.943,2.707,3.252,3.252,0,0,0,2.481.954,5.159,5.159,0,0,0,3.261-1.169V-.759a6.094,6.094,0,0,1-3.661,1,4.438,4.438,0,0,1-3.5-1.43,5.855,5.855,0,0,1-1.271-4.025A5.742,5.742,0,0,1,116.418-9.2a4.455,4.455,0,0,1,3.45-1.543,3.948,3.948,0,0,1,3.189,1.333,5.558,5.558,0,0,1,1.128,3.7Zm-1.723-1.425a3.421,3.421,0,0,0-.7-2.266,2.393,2.393,0,0,0-1.923-.81,2.716,2.716,0,0,0-2.02.851,3.862,3.862,0,0,0-1.025,2.225ZM133.885-.482a5.464,5.464,0,0,1-2.871.728,4.753,4.753,0,0,1-3.625-1.461A5.3,5.3,0,0,1,126.01-5,5.821,5.821,0,0,1,127.5-9.172a5.2,5.2,0,0,1,3.968-1.574,5.524,5.524,0,0,1,2.44.513v1.723a4.276,4.276,0,0,0-2.5-.82,3.381,3.381,0,0,0-2.64,1.154,4.377,4.377,0,0,0-1.031,3.03,4.168,4.168,0,0,0,.969,2.912,3.34,3.34,0,0,0,2.6,1.066,4.215,4.215,0,0,0,2.584-.913ZM141.3-.1a3.242,3.242,0,0,1-1.569.328q-2.758,0-2.758-3.076V-9.064h-1.8V-10.5h1.8v-2.563l1.682-.543V-10.5H141.3v1.436h-2.646v5.917a2.453,2.453,0,0,0,.359,1.507,1.432,1.432,0,0,0,1.189.451,1.768,1.768,0,0,0,1.1-.349ZM151.983-4.83H144.57a3.927,3.927,0,0,0,.943,2.707,3.252,3.252,0,0,0,2.481.954,5.159,5.159,0,0,0,3.261-1.169V-.759a6.094,6.094,0,0,1-3.661,1,4.438,4.438,0,0,1-3.5-1.43,5.855,5.855,0,0,1-1.271-4.025A5.742,5.742,0,0,1,144.216-9.2a4.455,4.455,0,0,1,3.45-1.543,3.948,3.948,0,0,1,3.189,1.333,5.558,5.558,0,0,1,1.128,3.7Zm-1.723-1.425a3.421,3.421,0,0,0-.7-2.266,2.393,2.393,0,0,0-1.923-.81,2.716,2.716,0,0,0-2.02.851,3.862,3.862,0,0,0-1.025,2.225ZM163.488,0h-1.682V-1.784h-.041a3.882,3.882,0,0,1-3.609,2.03,3.922,3.922,0,0,1-3.163-1.41A5.784,5.784,0,0,1,153.809-5a6.293,6.293,0,0,1,1.313-4.173,4.329,4.329,0,0,1,3.5-1.569,3.366,3.366,0,0,1,3.148,1.7h.041v-6.5h1.682Zm-1.682-4.748V-6.3a3,3,0,0,0-.841-2.153,2.82,2.82,0,0,0-2.133-.882,2.9,2.9,0,0,0-2.42,1.128,4.943,4.943,0,0,0-.882,3.117,4.445,4.445,0,0,0,.846,2.866,2.765,2.765,0,0,0,2.271,1.051,2.872,2.872,0,0,0,2.281-1.015A3.782,3.782,0,0,0,161.807-4.748Zm19.072.256a4.949,4.949,0,0,1-.369,1.948,4.26,4.26,0,0,1-1.051,1.5,4.706,4.706,0,0,1-1.646.964,6.436,6.436,0,0,1-2.143.338,5.92,5.92,0,0,1-3.045-.615V-2.143a5.6,5.6,0,0,0,3.066.964,4.149,4.149,0,0,0,1.441-.236,3.2,3.2,0,0,0,1.092-.656,2.81,2.81,0,0,0,.692-1.015,3.436,3.436,0,0,0,.241-1.3,2.79,2.79,0,0,0-.964-2.251,4.227,4.227,0,0,0-2.8-.815q-.3,0-.625.01t-.656.026q-.328.015-.641.036t-.569.051l.5-7.373h6.8v1.518H174.86l-.3,4.317q.328-.021.7-.036t.656-.015a6.6,6.6,0,0,1,2.092.308,4.432,4.432,0,0,1,1.564.877,3.676,3.676,0,0,1,.974,1.395A4.9,4.9,0,0,1,180.879-4.491Zm14.027-9.577a2.24,2.24,0,0,0-1.118-.277q-1.764,0-1.764,2.225v1.62h2.461v1.436h-2.461V0h-1.671V-9.064h-1.794V-10.5h1.794v-1.7a3.537,3.537,0,0,1,.954-2.61,3.219,3.219,0,0,1,2.379-.959,3.3,3.3,0,0,1,1.22.185Zm2.246.9a1.065,1.065,0,0,1-.769-.308,1.038,1.038,0,0,1-.318-.779,1.055,1.055,0,0,1,.318-.784,1.056,1.056,0,0,1,.769-.313,1.086,1.086,0,0,1,.784.313,1.046,1.046,0,0,1,.323.784,1.039,1.039,0,0,1-.323.769A1.077,1.077,0,0,1,197.152-13.166ZM197.972,0h-1.682V-10.5h1.682Zm5.086,0h-1.682V-15.545h1.682Zm18.313,0H219.69V-6.029a4.549,4.549,0,0,0-.538-2.522,2.042,2.042,0,0,0-1.81-.779,2.241,2.241,0,0,0-1.83.984,3.766,3.766,0,0,0-.754,2.358V0h-1.682V-6.234q0-3.1-2.389-3.1a2.213,2.213,0,0,0-1.825.928,3.836,3.836,0,0,0-.718,2.415V0h-1.682V-10.5h1.682v1.661h.041a3.567,3.567,0,0,1,3.261-1.907,3.04,3.04,0,0,1,1.876.6,3.017,3.017,0,0,1,1.1,1.574,3.747,3.747,0,0,1,3.486-2.174q3.466,0,3.466,4.276Zm2.543-.379v-1.8a4.977,4.977,0,0,0,3.025,1.015q2.215,0,2.215-1.477a1.281,1.281,0,0,0-.19-.713,1.891,1.891,0,0,0-.513-.518,3.946,3.946,0,0,0-.759-.405q-.436-.179-.938-.374a12.084,12.084,0,0,1-1.225-.559,3.7,3.7,0,0,1-.882-.636,2.366,2.366,0,0,1-.533-.8,2.848,2.848,0,0,1-.179-1.056,2.509,2.509,0,0,1,.338-1.307,3,3,0,0,1,.9-.954,4.208,4.208,0,0,1,1.287-.579,5.708,5.708,0,0,1,1.492-.195,6.024,6.024,0,0,1,2.44.472v1.7a4.756,4.756,0,0,0-2.666-.759,3.116,3.116,0,0,0-.851.108,2.084,2.084,0,0,0-.651.3,1.4,1.4,0,0,0-.42.467,1.229,1.229,0,0,0-.149.6,1.439,1.439,0,0,0,.149.687,1.512,1.512,0,0,0,.436.492,3.331,3.331,0,0,0,.7.39q.41.174.933.379a12.987,12.987,0,0,1,1.251.549,4.291,4.291,0,0,1,.943.636,2.484,2.484,0,0,1,.6.815,2.629,2.629,0,0,1,.21,1.1,2.587,2.587,0,0,1-.344,1.354,2.944,2.944,0,0,1-.918.954,4.2,4.2,0,0,1-1.323.564,6.531,6.531,0,0,1-1.569.185A5.957,5.957,0,0,1,223.915-.379ZM244.4-14.068a2.24,2.24,0,0,0-1.118-.277q-1.764,0-1.764,2.225v1.62h2.461v1.436h-2.461V0h-1.671V-9.064h-1.794V-10.5h1.794v-1.7a3.537,3.537,0,0,1,.954-2.61,3.219,3.219,0,0,1,2.379-.959,3.3,3.3,0,0,1,1.22.185ZM250.175.246a4.87,4.87,0,0,1-3.717-1.471,5.45,5.45,0,0,1-1.389-3.9,5.678,5.678,0,0,1,1.446-4.132,5.2,5.2,0,0,1,3.907-1.487A4.709,4.709,0,0,1,254.087-9.3,5.733,5.733,0,0,1,255.4-5.291a5.641,5.641,0,0,1-1.42,4.025A4.976,4.976,0,0,1,250.175.246Zm.123-9.577a3.2,3.2,0,0,0-2.563,1.1,4.527,4.527,0,0,0-.943,3.04,4.281,4.281,0,0,0,.954,2.943A3.241,3.241,0,0,0,250.3-1.169,3.074,3.074,0,0,0,252.8-2.225a4.583,4.583,0,0,0,.877-3,4.662,4.662,0,0,0-.877-3.035A3.061,3.061,0,0,0,250.3-9.331Zm13.269.533a2.056,2.056,0,0,0-1.271-.338,2.146,2.146,0,0,0-1.8,1.015,4.693,4.693,0,0,0-.723,2.769V0h-1.682V-10.5h1.682v2.164h.041a3.666,3.666,0,0,1,1.1-1.728,2.5,2.5,0,0,1,1.651-.62,2.745,2.745,0,0,1,1,.144ZM279.86,0h-1.682V-5.988q0-3.343-2.44-3.343a2.647,2.647,0,0,0-2.087.948,3.516,3.516,0,0,0-.825,2.394V0h-1.682V-10.5h1.682v1.743h.041a3.79,3.79,0,0,1,3.445-1.989,3.212,3.212,0,0,1,2.635,1.113,4.956,4.956,0,0,1,.913,3.215Zm7.557.246A4.87,4.87,0,0,1,283.7-1.225a5.45,5.45,0,0,1-1.389-3.9,5.678,5.678,0,0,1,1.446-4.132,5.2,5.2,0,0,1,3.907-1.487A4.709,4.709,0,0,1,291.329-9.3a5.733,5.733,0,0,1,1.318,4.009,5.641,5.641,0,0,1-1.42,4.025A4.976,4.976,0,0,1,287.417.246Zm.123-9.577a3.2,3.2,0,0,0-2.563,1.1,4.527,4.527,0,0,0-.943,3.04,4.281,4.281,0,0,0,.954,2.943,3.241,3.241,0,0,0,2.553,1.077,3.074,3.074,0,0,0,2.507-1.056,4.583,4.583,0,0,0,.877-3,4.662,4.662,0,0,0-.877-3.035A3.061,3.061,0,0,0,287.54-9.331ZM310.242,0h-1.682V-6.029a4.549,4.549,0,0,0-.538-2.522,2.042,2.042,0,0,0-1.81-.779,2.241,2.241,0,0,0-1.83.984,3.766,3.766,0,0,0-.754,2.358V0h-1.682V-6.234q0-3.1-2.389-3.1a2.213,2.213,0,0,0-1.825.928,3.836,3.836,0,0,0-.718,2.415V0h-1.682V-10.5h1.682v1.661h.041a3.567,3.567,0,0,1,3.261-1.907,3.04,3.04,0,0,1,1.876.6,3.017,3.017,0,0,1,1.1,1.574,3.747,3.747,0,0,1,3.486-2.174q3.466,0,3.466,4.276Zm4.04-13.166a1.065,1.065,0,0,1-.769-.308,1.038,1.038,0,0,1-.318-.779,1.055,1.055,0,0,1,.318-.784,1.056,1.056,0,0,1,.769-.313,1.086,1.086,0,0,1,.784.313,1.046,1.046,0,0,1,.323.784,1.039,1.039,0,0,1-.323.769A1.077,1.077,0,0,1,314.282-13.166ZM315.1,0h-1.682V-10.5H315.1Zm12.12,0h-1.682V-5.988q0-3.343-2.44-3.343a2.647,2.647,0,0,0-2.087.948,3.516,3.516,0,0,0-.825,2.394V0h-1.682V-10.5h1.682v1.743h.041a3.79,3.79,0,0,1,3.445-1.989,3.212,3.212,0,0,1,2.635,1.113,4.956,4.956,0,0,1,.913,3.215Zm10.685,0h-1.682V-1.641h-.041a3.521,3.521,0,0,1-3.23,1.887A3.452,3.452,0,0,1,330.5-.584a2.878,2.878,0,0,1-.887-2.2q0-2.943,3.466-3.425l3.148-.441q0-2.676-2.164-2.676a5.169,5.169,0,0,0-3.425,1.292V-9.762a6.507,6.507,0,0,1,3.568-.984q3.7,0,3.7,3.917Zm-1.682-5.312-2.533.349a4.112,4.112,0,0,0-1.764.579,1.671,1.671,0,0,0-.595,1.471,1.6,1.6,0,0,0,.549,1.256,2.12,2.12,0,0,0,1.461.487,2.7,2.7,0,0,0,2.066-.877,3.132,3.132,0,0,0,.815-2.22ZM345.946-.1a3.242,3.242,0,0,1-1.569.328q-2.758,0-2.758-3.076V-9.064h-1.8V-10.5h1.8v-2.563l1.682-.543V-10.5h2.646v1.436H343.3v5.917a2.453,2.453,0,0,0,.359,1.507,1.432,1.432,0,0,0,1.189.451,1.768,1.768,0,0,0,1.1-.349Zm3.107-13.063a1.065,1.065,0,0,1-.769-.308,1.038,1.038,0,0,1-.318-.779,1.055,1.055,0,0,1,.318-.784,1.056,1.056,0,0,1,.769-.313,1.086,1.086,0,0,1,.784.313,1.046,1.046,0,0,1,.323.784,1.039,1.039,0,0,1-.323.769A1.077,1.077,0,0,1,349.053-13.166ZM349.874,0h-1.682V-10.5h1.682Zm7.793.246a4.87,4.87,0,0,1-3.717-1.471,5.45,5.45,0,0,1-1.389-3.9,5.678,5.678,0,0,1,1.446-4.132,5.2,5.2,0,0,1,3.907-1.487A4.709,4.709,0,0,1,361.578-9.3,5.733,5.733,0,0,1,362.9-5.291a5.641,5.641,0,0,1-1.42,4.025A4.976,4.976,0,0,1,357.667.246Zm.123-9.577a3.2,3.2,0,0,0-2.563,1.1,4.527,4.527,0,0,0-.943,3.04,4.281,4.281,0,0,0,.954,2.943,3.241,3.241,0,0,0,2.553,1.077A3.074,3.074,0,0,0,360.3-2.225a4.583,4.583,0,0,0,.877-3,4.662,4.662,0,0,0-.877-3.035A3.061,3.061,0,0,0,357.79-9.331ZM374.3,0h-1.682V-5.988q0-3.343-2.44-3.343a2.647,2.647,0,0,0-2.087.948,3.516,3.516,0,0,0-.825,2.394V0h-1.682V-10.5h1.682v1.743h.041a3.79,3.79,0,0,1,3.445-1.989,3.212,3.212,0,0,1,2.635,1.113,4.956,4.956,0,0,1,.913,3.215Zm5.312-14.7-.195,10.562h-1.384L377.846-14.7ZM378.749.185a1.105,1.105,0,0,1-.8-.328,1.08,1.08,0,0,1-.333-.8,1.1,1.1,0,0,1,.333-.8,1.1,1.1,0,0,1,.8-.333,1.1,1.1,0,0,1,.8.333,1.088,1.088,0,0,1,.338.8,1.072,1.072,0,0,1-.338.8A1.111,1.111,0,0,1,378.749.185Z" transform="translate(717 401)" fill="#fff"/>
    </g>
  </g>
</svg>
