<svg id="Group_54" data-name="Group 54" xmlns="http://www.w3.org/2000/svg" width="293.219" height="326.413" viewBox="0 0 293.219 326.413">
  <path id="Path_61" data-name="Path 61" d="M927.44,359.9a27.528,27.528,0,0,0-11.077,2.324c0-.084.012-.165.012-.249a20.036,20.036,0,0,0-29.264-17.8,27.594,27.594,0,0,0-40.287-.846c-2.008-5.13-4.8-8.321-7.9-8.321-3.5,0-6.622,4.084-8.65,10.438A20.735,20.735,0,0,0,794.662,359.9a27.664,27.664,0,0,0-5.532,54.768v.556H927.44a27.662,27.662,0,1,0,0-55.324Z" transform="translate(-713.059 -335)" fill="#e09b2d"/>
  <path id="Path_62" data-name="Path 62" d="M956.812,628.083H776.958L746,422H992.193Z" transform="translate(-721.104 -301.67)" fill="#e54728"/>
  <path id="Path_63" data-name="Path 63" d="M832.941,628.083H801.13L779,422h53.941Z" transform="translate(-708.462 -301.67)" fill="#fff"/>
  <path id="Path_64" data-name="Path 64" d="M849,628.083h31.811L902.941,422H849Z" transform="translate(-681.644 -301.67)" fill="#fff"/>
  <path id="Path_65" data-name="Path 65" d="M888.44,388.9a27.528,27.528,0,0,0-11.077,2.324c0-.084.012-.165.012-.249a20.036,20.036,0,0,0-29.264-17.8,27.594,27.594,0,0,0-40.287-.846c-2.008-5.13-4.8-8.321-7.9-8.321-3.5,0-6.622,4.084-8.65,10.438A20.735,20.735,0,0,0,755.662,388.9a27.664,27.664,0,0,0-5.532,54.768v.556H888.44a27.662,27.662,0,1,0,0-55.324Z" transform="translate(-728 -323.89)" fill="#f7b239"/>
  <path id="Path_66" data-name="Path 66" d="M964.44,388.9a27.528,27.528,0,0,0-11.077,2.324c0-.084.012-.165.012-.249a20.036,20.036,0,0,0-29.264-17.8,27.594,27.594,0,0,0-40.287-.846c-2.008-5.13-4.8-8.321-7.9-8.321-3.5,0-6.622,4.084-8.65,10.438A20.735,20.735,0,0,0,831.662,388.9a27.664,27.664,0,0,0-5.532,54.768v.556H964.44a27.662,27.662,0,0,0,0-55.324Z" transform="translate(-698.884 -323.89)" fill="#ffcf40"/>
  <ellipse id="Ellipse_26" data-name="Ellipse 26" cx="57" cy="58" rx="57" ry="58" transform="translate(89.059 162.413)" fill="#fff"/>
  <g id="Group_39" data-name="Group 39" transform="translate(111.127 180.081)">
    <g id="Path_2" data-name="Path 2">
      <g id="Group_38" data-name="Group 38">
        <path id="Path_67" data-name="Path 67" d="M835,469.091a2.482,2.482,0,0,1,.828.4V467.7c-5.134,2.18-7.481,7.979-8.589,13.059l.725-.725-5.95,1.622,1.277,1.275a38.273,38.273,0,0,1,4.167-8.855c1.747-2.586,4.246-4.949,7.542-4.985a1.038,1.038,0,0,0,0-2.075c-7.81.086-11.539,9.169-13.709,15.362a1.045,1.045,0,0,0,1.275,1.277l5.949-1.622a1.028,1.028,0,0,0,.725-.725c1.006-4.606,2.968-9.835,7.638-11.817a1.045,1.045,0,0,0,0-1.793,4.565,4.565,0,0,0-1.877-.682C833.671,466.919,833.678,468.994,835,469.091Z" transform="translate(-803.405 -464.506)" fill="#e54728"/>
        <path id="Path_68" data-name="Path 68" d="M834.5,470.28a20.079,20.079,0,0,1,1.046,6.754l.761-1-6.856,1.891-.986.272,1.276,1.277a20.371,20.371,0,0,1,1.31-3.458,15.353,15.353,0,0,1,.788-1.4,11.976,11.976,0,0,1,.745-1.047,11.482,11.482,0,0,1,.842-.918c.151-.147.306-.289.466-.426.071-.062.144-.12.216-.181.192-.162-.036.021.115-.091a9.8,9.8,0,0,1,1.8-1.057,1.045,1.045,0,0,0,.372-1.419,1.06,1.06,0,0,0-1.419-.372c-3.941,1.777-6.086,5.844-7.238,9.813a1.048,1.048,0,0,0,1.277,1.277l6.856-1.892.986-.271a1.059,1.059,0,0,0,.762-1,21.911,21.911,0,0,0-1.119-7.306,1.065,1.065,0,0,0-1.277-.725A1.047,1.047,0,0,0,834.5,470.28Z" transform="translate(-800.93 -463.757)" fill="#e54728"/>
        <path id="Path_69" data-name="Path 69" d="M839.638,474.094l-3.517,1.087,1.314,1c0-.891.021-1.781-.044-2.671a20.176,20.176,0,0,0-.8-4.365l-1.277,1.277c.051.015.1.03.154.048.005,0,.241.094.1.035-.123-.053.041.022.064.033.05.026.1.051.148.077.112.062.221.129.326.2l.144.1c-.167-.119,0,0,.034.03a6.121,6.121,0,0,1,.574.546c.1.107.2.219.288.331.011.014.129.162.075.091s.105.145.1.14a10.706,10.706,0,0,1,.921,1.566c.073.151.144.3.21.456.011.025.077.185.131.326.122.32.231.645.331.972a1.038,1.038,0,0,0,2,0v-.006a1.037,1.037,0,1,0-2-.552v.006h2a12.861,12.861,0,0,0-1.922-3.981,6.279,6.279,0,0,0-3.129-2.422,1.045,1.045,0,0,0-1.275,1.275,17.534,17.534,0,0,1,.739,3.94c.057.846.036,1.7.036,2.544a1.046,1.046,0,0,0,1.313,1l3.516-1.086a1.038,1.038,0,0,0-.551-2Z" transform="translate(-798.309 -463.981)" fill="#e54728"/>
        <path id="Path_70" data-name="Path 70" d="M868.526,480.368c-.52-1.606-2.4-1.351-3.78-1.473q-1.99-.176-3.979-.366l.733.3c-1.248-1.246-2.5-2.5-3.806-3.679a3.914,3.914,0,0,0-2.281-1.279,7.842,7.842,0,0,0-3.3.9l1.277.723c-1.52-4.141-4.284-8.062-9.115-8.062l.9.513c-3.859-5.423-11.585-1.81-15.061,2.12s-5.524,9.061-6.846,14.084l.723-.725c-2.131.551-4.184,1.325-6.276,2-1.133.367-2.528.557-3.17,1.7a8.66,8.66,0,0,0-.629,2.969c-.429,3.1-.823,6.21-1.225,9.317q-1.753,13.581-3.471,27.166-.43,3.4-.86,6.794a1.033,1.033,0,0,0,.761,1l28.251,5.329,13.752,2.595a4.817,4.817,0,0,0,2.126.059l6.719-1.484,15.956-3.523a1.064,1.064,0,0,0,.725-1.277q-1.363-9.271-2.723-18.545-2.191-14.936-4.362-29.874-.373-2.585-.741-5.17-.106-.739-.207-1.479c.012.093.084-.129-.025-.194-.018-.011-.018-.141-.018-.17l-.515.9h0c1.194-.6.144-2.387-1.047-1.791h0a1.019,1.019,0,0,0-.513.9,55.768,55.768,0,0,0,.819,5.849q.963,6.678,1.94,13.357,2.187,14.975,4.389,29.946l1,6.831.725-1.277-13.516,2.985-7.946,1.755c-.339.075-1.48.125-1.736.383-.062.064.577.115.423,0-.087-.065-.315-.057-.42-.079-4.079-.913-8.239-1.555-12.346-2.331l-18.712-3.53-11.449-2.16.762,1q1.083-8.571,2.177-17.139c1.033-8.1,2.053-16.206,3.133-24.3.091-.685.2-1.516.32-2.293a4.412,4.412,0,0,1,.243-1.364c.257-.456.812-.488,1.3-.636,2.325-.7,4.582-1.6,6.939-2.209a1.038,1.038,0,0,0,.725-.725c1.17-4.444,2.9-9,5.831-12.6a12.662,12.662,0,0,1,5.95-4.336,8.366,8.366,0,0,1,4-.342,3.834,3.834,0,0,1,2.036,1.189c.5.549.631.82,1.393.895a6.2,6.2,0,0,1,4.268,1.928,13.169,13.169,0,0,1,2.642,4.611,1.05,1.05,0,0,0,1.277.725,10.183,10.183,0,0,1,2.307-.824c.683,0,.971.4,1.5.884,1.152,1.06,2.23,2.2,3.371,3.266.732.685,1.831.586,2.79.675q1.315.122,2.632.238c.36.03.719.062,1.079.089a1.128,1.128,0,0,0,.383.028c.38-.136.032.481-.192-.21C866.937,482.184,868.941,481.644,868.526,480.368Z" transform="translate(-808.346 -465.2)" fill="#e54728"/>
      </g>
    </g>
    <path id="Path_3" data-name="Path 3" d="M854.212,477.644c-.271,0-5.949-.541-5.949-.541s-4.052-4.054-4.6-4.324c-.271-.271-.271-.271-.541-.271l-3.246,66.521,23.255-5.135s-8.112-55.167-8.112-55.707c0-.27-.541-.541-.812-.541" transform="translate(-796.265 -462.4)" fill="none" stroke="#e54728" stroke-miterlimit="10" stroke-width="1"/>
    <path id="Path_4" data-name="Path 4" d="M842.16,484.513l-2.975,8.65a12.807,12.807,0,0,0-5.678-1.351c-4.6,0-4.868,2.7-4.868,3.514,0,3.787,10.271,5.409,10.271,14.6,0,7.3-4.6,11.9-10.816,11.9a14.866,14.866,0,0,1-11.083-4.6l1.893-6.49s3.787,3.245,7.03,3.245a2.821,2.821,0,0,0,2.975-2.655,3.1,3.1,0,0,0,0-.32c0-5.135-8.383-5.409-8.383-13.8,0-7.032,5.135-13.8,15.142-13.8,4.6-.271,6.491,1.082,6.491,1.082" transform="translate(-805.026 -458.234)" fill="none" stroke="#e54728" stroke-miterlimit="10" stroke-width="1"/>
  </g>
  <path id="Path_71" data-name="Path 71" d="M847.866,456a51.866,51.866,0,1,0,51.866,51.867A51.866,51.866,0,0,0,847.866,456Zm0,99.223a47.356,47.356,0,1,1,47.356-47.356A47.356,47.356,0,0,1,847.866,555.223Z" transform="translate(-701.949 -288.644)" fill="#e54728"/>
</svg>
