<svg xmlns="http://www.w3.org/2000/svg" width="90.919" height="109.5" viewBox="0 0 90.919 109.5">
  <g id="Group_49" data-name="Group 49" transform="translate(-939.666 -63)">
    <path id="Path_72" data-name="Path 72" d="M1027.261,68.182v2.9h-4.8v-2.9h-3.363V99.41H971.21V68.182h-3.149v3.05h-4.8v-3.05H960V172.205h3.132v-1.772h4.8v1.772h3.194V145.787h47.884v26.418h3.283v-2.047h4.8v2.047h3.363V68.182Zm-64.089,6.9h4.8v4.3h-4.8Zm0,7.888h4.8v4.3h-4.8Zm4.764,83.834h-4.8v-4.3h4.8Zm0-7.924h-4.8v-4.3h4.8Zm0-7.924h-4.8v-4.3h4.8Zm0-7.924h-4.8v-4.3h4.8Zm0-7.924h-4.8v-4.3h4.8Zm0-7.924h-4.8v-4.3h4.8Zm.08-8.11h-4.8v-4.3h4.8Zm0-7.924h-4.8v-4.3h4.8Zm0-7.924h-4.8v-4.3h4.8Zm0-7.924h-4.8v-4.3h4.8Zm51,46.283H971.13V103.838h47.884Zm8.087,24.942h-4.8v-4.3h4.8Zm0-7.924h-4.8v-4.3h4.8Zm0-7.924h-4.8v-4.3h4.8Zm0-7.924h-4.8v-4.3h4.8Zm0-7.924h-4.8v-4.3h4.8Zm0-7.924h-4.8v-4.3h4.8Zm.08-8.11h-4.8v-4.3h4.8Zm0-7.924h-4.8v-4.3h4.8Zm0-7.924h-4.8v-4.3h4.8Zm0-7.924h-4.8v-4.3h4.8Zm0-7.924h-4.8v-4.3h4.8Zm0-7.924h-4.8v-4.3h4.8Z" transform="translate(-9.641 -2.457)"/>
    <g id="Group_48" data-name="Group 48" transform="translate(978.561 106.703)">
      <path id="Path_73" data-name="Path 73" d="M1070.558,136.233l7.919,16.137,18.214,3.02-13.067,12.022,3.307,18.778-16.374-8.729-16.125,8.729,3.027-18.842-12.794-11.958,17.988-2.9Z" transform="translate(-1044.666 -136.233)" fill="#ffd16b"/>
      <path id="Path_74" data-name="Path 74" d="M1093.23,136.233l7.919,16.137,18.214,3.02L1106.3,167.412l3.307,18.778-1.828-.975-2.805-17.868,11.779-11.131-16.3-2.629-7.965-15.816Z" transform="translate(-1067.339 -136.233)" fill="#c8943d"/>
    </g>
    <path id="Path_75" data-name="Path 75" d="M956.083,211l5.021,10.231,11.548,1.915-8.285,7.622,2.1,11.906-10.381-5.534-10.224,5.534,1.92-11.947-8.112-7.582,11.4-1.838Z" transform="translate(0 -70.174)" fill="#ffd16b"/>
    <path id="Path_76" data-name="Path 76" d="M970.458,211l5.021,10.231,11.548,1.915-8.285,7.622,2.1,11.906-1.159-.618L977.9,230.727l7.468-7.058L975.034,222l-5.05-10.028Z" transform="translate(-14.375 -70.174)" fill="#c8943d"/>
    <path id="Path_77" data-name="Path 77" d="M985.475,63l5.61,11.432,12.9,2.139-9.257,8.517,2.343,13.3-11.6-6.184L974.052,98.39,976.2,85.042l-9.064-8.471,12.743-2.054Z" transform="translate(-13.023)" fill="#ffd16b"/>
    <path id="Path_78" data-name="Path 78" d="M1001.537,63l5.61,11.432,12.9,2.139-9.257,8.517,2.343,13.3-1.295-.69-1.987-12.658,8.345-7.886-11.548-1.863-5.643-11.2Z" transform="translate(-29.085)" fill="#c8943d"/>
  </g>
</svg>
