<svg xmlns="http://www.w3.org/2000/svg" width="436.642" height="136.968" viewBox="0 0 436.642 136.968">
  <g id="Group_31" data-name="Group 31" transform="translate(-700.165 -161.801)">
    <g id="Group_16" data-name="Group 16" transform="translate(-251.864 83.294)">
      <path id="Path_35" data-name="Path 35" d="M1013.975,157.457c-4.3-2.387-6.2-4.3-6.2-6.682,0-3.341,2.863-5.25,7.642-5.25a25.42,25.42,0,0,1,10.021,2.387l3.817-11.454s-3.346-2.865-13.368-2.865c-14.317,0-23.861,8.113-23.861,19.566,0,6.682,4.772,11.454,10.5,14.795,4.772,2.863,6.682,4.772,6.682,7.642s-2.387,5.726-7.158,5.726a34.547,34.547,0,0,1-13.362-3.341l-3.819,11.45a30.192,30.192,0,0,0,15.749,3.817c14.317,0,24.816-7.158,24.816-20.044,0-7.158-5.25-12.408-11.454-15.749m57.744-24.347a21.7,21.7,0,0,0-17.18,8.591h0l6.207-32.442h-16.227l-15.753,82.56h16.225l5.251-28.157c1.909-10.5,7.642-17.18,12.886-17.18,3.817,0,5.25,2.387,5.25,6.2a36.165,36.165,0,0,1-.478,7.158l-6.206,32.45h16.225l6.2-33.41a85.463,85.463,0,0,0,.956-10.5c0-9.545-4.771-15.271-13.362-15.271m41.519,47.245c-5.726,0-7.641-4.772-7.641-10.5,0-9.063,4.77-24.347,13.36-24.347,5.726,0,7.643,4.772,7.643,9.545,0,10.512-4.772,25.306-13.362,25.306Zm8.111-47.241c-19.566,0-32.452,17.658-32.452,37.224,0,12.408,7.642,22.429,22.429,22.429,19.088,0,31.974-17.18,31.974-37.224C1143.3,144.1,1136.622,133.118,1121.348,133.118Zm46.993,47.723a8.229,8.229,0,0,1-5.952-2.387l2.55-15.271c1.7-10.021,6.376-16.705,11.477-16.705,4.249,0,5.952,4.772,5.952,9.063-.421,10.506-5.948,25.3-14.025,25.3Zm16.479-47.723c-10.976,0-17.179,9.545-17.179,9.545h0l.954-8.591h-14.317a198.115,198.115,0,0,1-3.341,21.475l-11.453,59.178h16.225l4.3-23.862h.478a20.6,20.6,0,0,0,9.545,1.909c19.09,0,31.5-19.566,31.5-39.132,0-10.5-4.773-20.522-16.7-20.522Zm96.479-22.907a9.175,9.175,0,0,0-9.071,9.28c0,.089,0,.176.007.265,0,4.772,2.861,8.113,7.642,8.113h0a9.011,9.011,0,0,0,9.545-8.441,9.565,9.565,0,0,0,0-1.1,7.766,7.766,0,0,0-7.4-8.113c-.236-.011-.474-.011-.709,0m-22.429,81.606H1275.1l10.976-57.266h-16.225ZM1225.7,181.591a8.229,8.229,0,0,1-5.952-2.387l2.55-15.271c1.7-10.021,6.376-16.705,11.477-16.705,4.249,0,5.952,4.772,5.952,9.063-.421,10.506-5.948,25.3-14.025,25.3Zm16.479-47.723c-10.976,0-17.181,9.545-17.181,9.545h0l.954-8.591h-14.317A197.691,197.691,0,0,1,1208.3,156.3l-11.453,59.178h16.224l4.3-23.862h.478a20.606,20.606,0,0,0,9.545,1.909c19.092,0,31.5-19.566,31.5-39.132,0-10.5-4.773-20.522-16.7-20.522ZM1373.4,158.662c-4.3-2.387-6.2-4.3-6.2-6.682,0-3.341,2.863-5.25,7.64-5.25a25.4,25.4,0,0,1,10.021,2.387l3.817-11.454s-3.344-2.865-13.366-2.865c-14.317,0-23.862,8.113-23.862,19.566,0,6.682,4.771,11.454,10.5,14.795,4.772,2.863,6.682,4.772,6.682,7.642s-2.387,5.726-7.158,5.726a34.531,34.531,0,0,1-13.364-3.341l-3.817,11.45a30.191,30.191,0,0,0,15.749,3.817c14.317,0,24.816-7.158,24.816-20.044,0-7.158-5.25-12.408-11.454-15.749m-59.521,22.527c-5.726,0-7.642-4.772-7.642-10.5,0-9.063,4.772-24.347,13.362-24.347,5.726,0,7.642,4.772,7.642,9.545,0,10.512-4.772,25.306-13.362,25.306Zm8.111-47.241c-19.566,0-32.452,17.658-32.452,37.224,0,12.408,7.642,22.429,22.429,22.429,19.088,0,31.974-17.18,31.974-37.224C1343.94,144.923,1337.26,133.946,1321.986,133.946Z"/>
      <path id="Path_35-2" data-name="Path 35" d="M1201.543,145.663H1166V135h35.543v10.663Z" transform="translate(140.767 20.005)"/>
      <rect id="Rectangle_11" data-name="Rectangle 11" width="21.326" height="7.109" transform="translate(1322.761 165.668)" fill="#ebd5ac"/>
    </g>
    <text id="the" transform="matrix(0.966, -0.259, 0.259, 0.966, 710, 213)" font-size="36" font-family="ShopifySansWeb-Bold, Shopify Sans Web" font-weight="700"><tspan x="0" y="0">the</tspan></text>
  </g>
</svg>
